<?xml version="1.0" standalone="no"?>
<!DOCTYPE svg PUBLIC "-//W3C//DTD SVG 20010904//EN"
 "http://www.w3.org/TR/2001/REC-SVG-20010904/DTD/svg10.dtd">
<svg version="1.0" xmlns="http://www.w3.org/2000/svg"
 width="1710.000000pt" height="1710.000000pt" viewBox="0 0 1710.000000 1710.000000"
 preserveAspectRatio="xMidYMid meet">
<metadata>
Created by potrace 1.14, written by Peter Selinger 2001-2017
</metadata>
<g transform="translate(0.000000,1710.000000) scale(0.100000,-0.100000)"
fill="#000000" stroke="none">
<path d="M2356 12619 c2 -4 16 -10 31 -14 125 -30 285 -230 383 -477 l22 -57
-32 -68 c-17 -38 -52 -124 -76 -193 -25 -69 -49 -134 -54 -145 -5 -11 -38
-103 -75 -205 -75 -209 -336 -924 -570 -1565 -148 -405 -218 -597 -251 -690
-8 -22 -18 -49 -23 -60 -5 -11 -27 -69 -49 -130 -22 -60 -58 -159 -80 -220
-22 -60 -43 -121 -47 -135 -4 -14 -13 -38 -20 -55 -8 -16 -35 -88 -60 -160
-152 -422 -377 -1047 -405 -1120 -20 -52 -110 -303 -140 -390 -10 -27 -48
-131 -84 -230 -36 -99 -66 -183 -66 -187 0 -5 -19 -50 -42 -100 -109 -244
-262 -437 -451 -572 -62 -45 -179 -104 -220 -112 -11 -2 -22 -5 -24 -7 -2 -3
217 -4 486 -4 l490 0 -57 27 c-31 15 -69 40 -84 56 -64 70 -106 185 -110 299
-4 139 14 223 97 450 26 72 56 155 67 185 48 136 135 376 238 660 42 115 112
307 170 470 66 185 92 255 100 275 4 11 25 67 45 125 20 58 41 114 46 125 4
11 40 110 80 220 81 227 94 265 249 685 62 168 121 330 132 360 10 30 37 102
58 160 34 93 65 177 147 400 13 36 33 92 45 125 12 33 45 125 75 205 30 80 56
152 58 160 2 8 24 69 49 135 24 66 115 314 201 550 86 237 164 446 172 465 8
19 16 44 19 55 18 90 23 91 47 10 9 -27 52 -167 97 -310 45 -143 104 -330 130
-415 27 -85 100 -319 163 -520 105 -332 212 -672 612 -1950 73 -234 172 -549
220 -700 48 -151 96 -304 106 -340 11 -36 24 -74 28 -85 5 -11 13 -31 18 -45
9 -23 11 -20 31 35 11 33 53 148 92 255 40 107 90 245 111 305 22 61 43 119
48 130 5 11 57 153 116 315 59 162 136 374 172 470 35 96 85 231 110 300 25
69 49 134 53 145 9 23 66 179 135 370 26 72 105 288 176 482 71 193 129 354
129 358 0 4 6 21 14 38 8 18 19 46 24 62 6 17 83 228 172 470 89 242 163 445
164 450 2 6 9 24 15 40 7 17 24 66 39 110 14 44 28 83 31 87 3 4 27 -61 53
-145 25 -84 103 -334 173 -557 70 -223 172 -549 227 -725 55 -176 151 -484
214 -685 63 -201 116 -369 118 -375 29 -104 41 -135 51 -135 8 0 15 3 17 8 1
4 28 28 58 52 30 25 57 48 60 51 3 3 39 26 80 52 94 58 240 126 346 162 l82
28 -14 41 c-12 37 -77 244 -140 449 -13 42 -35 112 -48 155 -13 42 -50 158
-81 257 -31 99 -74 239 -96 310 -22 72 -44 141 -49 155 -5 14 -66 207 -135
430 -177 571 -188 600 -252 696 -124 183 -368 319 -688 383 -138 27 -435 49
-435 31 0 -4 17 -12 38 -18 98 -30 225 -169 312 -344 87 -174 89 -181 51 -257
-18 -34 -48 -108 -68 -164 -36 -104 -85 -240 -96 -267 -3 -8 -43 -116 -87
-240 -45 -124 -85 -234 -90 -245 -4 -11 -13 -36 -20 -55 -7 -19 -16 -44 -20
-55 -15 -36 -73 -196 -135 -370 -24 -66 -87 -239 -140 -385 -54 -146 -106
-290 -117 -320 -10 -30 -23 -64 -28 -75 -4 -11 -22 -58 -39 -105 -42 -119
-322 -886 -343 -940 l-10 -25 -10 25 c-10 25 -38 114 -83 260 -13 41 -69 221
-125 400 -56 179 -123 395 -150 480 -27 85 -123 394 -215 685 -91 292 -167
535 -169 540 -1 6 -6 21 -10 35 -4 14 -30 97 -57 185 -195 629 -216 691 -262
780 -149 288 -559 470 -1079 480 -48 0 -85 -2 -82 -6z"/>
<path d="M8415 12620 c3 -4 17 -11 32 -15 126 -31 283 -227 382 -477 l23 -58
-36 -77 c-19 -43 -79 -197 -132 -343 -53 -146 -166 -456 -251 -690 -85 -234
-172 -472 -193 -530 -21 -58 -70 -193 -110 -300 -39 -107 -78 -215 -87 -240
-8 -25 -19 -53 -24 -62 -9 -16 -5 -18 29 -18 l39 0 43 118 c23 64 51 140 60
167 35 99 251 690 259 710 5 11 59 160 121 330 61 171 125 344 140 385 72 191
149 408 155 438 8 39 19 33 33 -18 6 -19 22 -71 35 -115 80 -253 164 -522 325
-1035 252 -802 292 -930 384 -1220 44 -140 102 -325 128 -410 27 -85 98 -315
160 -510 61 -195 131 -420 156 -500 25 -80 57 -181 72 -225 14 -44 27 -84 28
-90 4 -23 96 -296 99 -293 2 3 32 82 150 403 18 50 72 198 120 330 47 132 90
249 95 260 8 18 112 303 162 445 11 30 26 69 33 85 7 17 22 57 34 90 11 33 97
269 191 525 94 256 172 470 174 475 2 6 6 17 9 25 6 17 108 295 167 460 21 58
88 242 150 410 61 168 132 361 156 430 25 69 49 134 54 145 18 40 93 252 109
309 10 33 20 55 23 50 6 -10 48 -143 193 -609 91 -291 262 -838 325 -1040 15
-49 49 -156 74 -237 25 -82 67 -214 92 -295 26 -82 59 -188 74 -238 16 -49 43
-135 60 -190 18 -55 34 -108 37 -117 3 -9 -61 -201 -142 -425 -239 -663 -524
-1450 -565 -1563 -21 -58 -98 -269 -170 -470 -142 -391 -186 -491 -276 -628
-48 -73 -226 -264 -285 -307 -51 -38 -151 -91 -207 -111 -53 -19 -61 -24 -37
-24 57 -1 880 -1 910 0 29 2 29 2 5 9 -107 33 -192 140 -215 271 -12 65 -13
176 -3 229 5 25 11 60 14 76 3 17 30 107 61 200 136 416 389 781 756 1088 251
209 393 303 702 462 275 141 476 247 585 308 152 84 412 254 509 331 95 76
217 208 284 309 33 48 60 87 62 87 2 0 20 -53 40 -117 20 -65 45 -143 56 -173
10 -30 66 -206 123 -390 58 -184 155 -495 216 -690 62 -195 134 -425 160 -510
27 -85 105 -337 174 -560 134 -428 144 -479 124 -591 -23 -126 -106 -237 -220
-294 -39 -19 -79 -35 -89 -35 -10 0 -20 -3 -22 -7 -4 -6 1677 -8 1753 -3 8 1
-18 10 -58 21 -143 38 -286 125 -399 240 -146 151 -195 241 -283 519 -29 91
-69 219 -90 285 -92 287 -131 409 -175 545 -26 80 -78 246 -117 370 -85 275
-161 518 -221 710 -25 80 -92 291 -147 470 -56 179 -114 366 -130 415 -28 89
-214 683 -457 1460 -68 220 -146 470 -173 555 -27 85 -59 187 -71 225 -12 39
-24 75 -25 80 -1 6 -30 98 -64 205 -72 231 -81 266 -84 345 -8 204 117 376
314 432 38 11 -4 12 -280 9 -359 -4 -407 -11 -548 -78 -113 -53 -219 -171
-237 -263 -7 -36 -7 -130 0 -167 4 -18 -7 -51 -35 -107 -22 -44 -40 -83 -40
-86 0 -3 -49 -139 -109 -303 -140 -381 -312 -850 -391 -1067 -35 -93 -64 -171
-65 -173 -4 -4 -32 84 -285 898 -234 749 -272 856 -340 954 -119 173 -416 326
-730 375 -153 24 -427 37 -380 18 86 -35 122 -58 181 -116 76 -76 137 -168
196 -296 60 -131 60 -129 14 -225 -23 -46 -41 -89 -41 -95 0 -6 -12 -40 -26
-76 -14 -35 -27 -71 -29 -79 -2 -8 -22 -64 -45 -125 -23 -60 -46 -123 -52
-140 -33 -93 -91 -253 -98 -270 -5 -11 -57 -153 -115 -315 -59 -162 -130 -356
-157 -430 -27 -74 -70 -191 -95 -260 -25 -69 -74 -204 -109 -300 -77 -210
-125 -341 -235 -640 -45 -124 -95 -261 -111 -305 -17 -44 -37 -100 -45 -125
-9 -25 -19 -49 -23 -53 -4 -5 -21 36 -38 90 -62 195 -244 781 -283 908 -22 72
-44 141 -49 155 -6 14 -41 126 -79 250 -73 236 -106 343 -269 865 -55 176
-148 472 -206 657 -119 381 -132 417 -193 510 -129 197 -422 352 -763 402
-121 17 -373 28 -365 16z m5532 -942 c50 -161 153 -489 228 -728 75 -239 146
-464 157 -500 11 -36 56 -180 100 -320 44 -140 102 -325 128 -410 137 -438
161 -515 165 -519 7 -7 -60 -126 -113 -200 -57 -81 -214 -240 -302 -308 -196
-150 -314 -219 -805 -468 -306 -156 -333 -170 -405 -212 -94 -55 -349 -229
-450 -307 -139 -107 -368 -335 -469 -466 -134 -174 -123 -164 -100 -100 24 64
332 908 361 990 11 30 55 152 98 270 80 220 346 953 405 1115 70 194 239 656
280 765 24 63 64 174 90 245 49 138 81 225 96 264 6 13 55 148 110 300 55 152
104 285 109 296 5 11 39 103 76 205 36 102 75 208 86 235 11 28 19 51 18 53
-4 6 32 92 39 92 3 0 48 -132 98 -292z"/>
<path d="M7918 9575 c-2 -1 -42 -5 -91 -9 -249 -17 -509 -83 -702 -178 -342
-167 -523 -433 -530 -781 -5 -263 79 -467 271 -661 181 -182 375 -298 926
-556 337 -158 448 -215 579 -296 383 -237 525 -503 454 -847 -14 -68 -80 -187
-136 -247 -101 -106 -288 -201 -471 -239 -29 -6 -64 -14 -78 -16 -91 -20 -319
-26 -435 -13 -306 34 -615 171 -824 364 -64 60 -191 212 -191 229 0 4 15 -2
33 -13 122 -71 322 -43 418 59 67 71 83 118 84 239 0 95 -3 110 -28 162 -55
112 -157 170 -302 170 -266 1 -411 -232 -304 -487 68 -161 135 -262 248 -375
174 -172 404 -289 696 -355 66 -15 138 -29 160 -31 22 -3 72 -9 110 -13 73 -9
435 -7 495 3 19 3 58 8 85 12 28 3 73 10 100 16 28 5 61 11 75 14 133 24 389
118 501 185 330 193 493 453 504 804 6 155 -23 297 -85 427 -48 98 -68 128
-175 257 -44 53 -196 177 -300 246 -176 116 -337 200 -730 380 -206 94 -365
173 -460 225 -357 199 -517 403 -510 650 8 281 175 474 487 565 31 9 67 18 80
21 13 2 34 6 48 9 97 21 360 27 475 12 98 -13 255 -56 345 -94 285 -120 506
-322 622 -569 17 -36 29 -67 26 -69 -2 -2 -28 8 -58 23 -50 25 -65 27 -170 27
-102 0 -121 -3 -164 -24 -65 -33 -113 -82 -145 -150 -23 -49 -26 -69 -26 -156
1 -79 5 -109 21 -145 58 -126 169 -190 324 -186 133 4 233 68 289 186 23 49
26 66 25 165 -1 97 -5 122 -33 205 -120 349 -370 598 -750 745 -96 37 -261 80
-346 89 -27 4 -61 9 -75 12 -24 5 -357 13 -362 9z"/>
<path d="M11292 5364 c-61 -27 -128 -93 -139 -138 -11 -45 -6 -79 14 -93 39
-29 70 -4 78 62 15 120 84 188 182 179 79 -6 134 -61 154 -154 29 -136 -15
-225 -186 -376 -199 -175 -237 -230 -227 -330 l3 -31 245 0 244 0 0 49 c0 52
-3 56 -26 33 -12 -12 -44 -15 -142 -16 -175 -1 -306 1 -310 6 -9 9 20 73 49
109 18 20 93 84 168 140 213 161 264 228 264 346 0 185 -189 294 -371 214z"/>
<path d="M13138 5380 c-143 -43 -248 -228 -250 -440 -3 -258 130 -457 313
-466 183 -9 333 203 330 467 -1 48 -5 98 -10 111 -5 13 -9 28 -10 33 -20 121
-121 256 -217 289 -51 17 -112 20 -156 6z m161 -24 c60 -32 111 -114 138 -223
22 -94 22 -315 -1 -403 -50 -189 -145 -271 -276 -238 -128 33 -200 205 -195
466 4 220 60 353 169 403 46 20 120 18 165 -5z"/>
<path d="M14904 5366 c-70 -33 -120 -79 -140 -131 -20 -54 -13 -92 22 -107 36
-16 61 12 68 77 7 65 29 109 72 142 51 38 137 38 187 0 52 -40 80 -106 81
-191 1 -121 -24 -155 -296 -411 -99 -93 -118 -125 -121 -203 l-2 -57 245 0
245 0 3 48 c2 28 -1 47 -7 47 -6 0 -11 -4 -11 -9 0 -5 -10 -13 -22 -17 -25 -8
-427 -8 -435 -1 -13 14 13 74 51 115 22 25 100 89 173 143 191 144 254 224
255 330 0 96 -40 169 -120 216 -66 39 -175 43 -248 9z"/>
<path d="M16710 5384 c-126 -49 -190 -119 -190 -210 0 -29 34 -57 58 -50 31
10 40 27 46 89 4 32 11 68 15 80 11 28 49 63 81 75 39 14 121 7 160 -14 43
-24 81 -95 85 -159 5 -94 -77 -188 -175 -201 -58 -8 -65 -18 -15 -21 83 -4
185 -75 227 -158 43 -82 11 -233 -58 -282 -33 -23 -120 -52 -146 -47 -10 1
-18 -2 -18 -8 0 -17 111 1 170 28 106 48 144 108 145 226 0 69 -3 80 -30 119
-39 55 -95 94 -165 116 l-55 17 35 10 c60 19 99 45 130 87 26 37 29 47 27 109
-3 56 -8 74 -30 104 -47 61 -105 88 -200 92 -45 2 -89 1 -97 -2z"/>
<path d="M16510 4720 c-25 -25 -25 -43 1 -97 24 -49 102 -114 159 -131 57 -18
100 -23 100 -12 0 5 -12 10 -26 10 -42 0 -104 41 -125 82 -11 21 -21 57 -23
81 -6 81 -43 110 -86 67z"/>
</g>
</svg>
